<?xml version="1.0" encoding="utf-8"?>
<!-- Generator: Adobe Illustrator 15.0.0, SVG Export Plug-In . SVG Version: 6.00 Build 0)  -->
<!DOCTYPE svg PUBLIC "-//W3C//DTD SVG 1.1//EN" "http://www.w3.org/Graphics/SVG/1.1/DTD/svg11.dtd">
<svg version="1.1" id="Capa_1" xmlns="http://www.w3.org/2000/svg" xmlns:xlink="http://www.w3.org/1999/xlink" x="0px" y="0px"
	 width="470.713px" height="470.714px" viewBox="0 0 470.713 470.714" enable-background="new 0 0 470.713 470.714"
	 xml:space="preserve">
<polygon fill="#FFFFFF" points="101.856,110.857 122.856,135.857 122.856,181.857 122.856,244.857 122.856,343.523 140.856,428.857 
	184.856,449.857 248.856,449.857 310.856,449.857 334.856,437.857 342.856,396.857 351.856,307.857 351.856,227.857 
	351.856,169.654 351.856,132.857 379.856,123.857 379.856,99.857 361.856,84.857 297.856,69.857 284.696,69.857 275.856,52.857 
	259.204,30.857 235.357,16.857 207.856,23.857 190.856,52.857 186.856,68.857 156.705,69.857 124.856,74.857 101.856,83.857 
	90.856,97.857 "/>
<g>
	<g>
		<path fill="#47CBE6" d="M96.01,133.456c3.884,2.676,8.163,4.332,12.619,5.292c-5.324,99.039-15.803,202.435,20.416,296.978
			c1.742,4.545,4.938,7.389,8.604,8.846c1.26,1.762,3.052,3.326,5.637,4.479c64.729,28.746,133.521,27.488,199.892,4.459
			c8.675-3.012,11.314-11.242,9.735-18.256c12.604-95.928,24.562-194.693,14.67-291.429c7.83-1.725,15.146-5.027,20.586-11.075
			c10.745-11.959,8.679-27.345,3.387-41.068c0.012-3.816-1.787-7.467-5.869-9.973c-1.621-1.254-3.545-2.127-5.597-2.59
			c-29.727-12.703-61.366-19.342-93.733-22.427c0.568-2.892,0.319-6.058-1.082-9.308C275.168,24.077,255.044-3.4,226.105,0.345
			c-27.863,3.604-41.365,30.793-47.007,55.726c-18.611,0.978-37.039,2.207-55.035,3.245c-0.125,0.005-0.236,0.048-0.36,0.058
			c-0.854-0.109-1.722-0.163-2.61-0.058c-19.291,2.267-35.53,11.491-43.975,29.609c-1.123,2.407-1.678,4.948-1.737,7.439
			c-0.749,2.455-0.8,5.278,0.239,8.444C79.532,116.676,85.656,126.312,96.01,133.456z M324.104,428.544
			c-54.888,16.904-112.159,18.713-165.844-5.129c-0.814-0.359-1.623-0.578-2.422-0.801
			c-32.966-90.754-22.635-189.448-17.514-284.178c65.534-4.644,131.547-5.657,196.814,2.567c0.771,0.812,1.654,1.518,2.646,2.138
			C347.57,237.832,336.404,334.527,324.104,428.544z M228.662,29.693c12.937-1.676,22.006,13.327,27.591,25.111
			c-15.449-0.536-30.97-0.447-46.445,0C212.948,43.419,218.445,31.013,228.662,29.693z M110.845,92.726
			c-1.826,1.579,4.918-2.508,2.775-1.617c1.498-0.625,3.075-1.046,4.639-1.478c-0.358,0.099,4.903-0.879,2.833-0.64
			c0.183-0.021,0.355-0.074,0.536-0.1c0.785,0.074,1.567,0.152,2.43,0.1c77.348-4.481,167.339-15.376,240.798,15.658
			c0.232,0.69,0.533,1.356,0.746,2.059c0.295,1.018,0.537,2.054,0.746,3.093c0.016,0.23,0.03,0.475,0.057,0.833
			c0.02,0.536-0.021,1.077-0.041,1.612c-0.01,0.045-0.035,0.15-0.051,0.203c-0.314-0.053-2.469,1.498-1.59,1.331
			c-1.631,0.604-3.326,1.03-5.018,1.409c-0.809,0.183-1.874,0.312-3.082,0.406c-1.574-1.141-3.529-1.993-6.038-2.336
			c-75.291-10.336-150.897-9.422-226.528-3.499c-1.364,0.109-2.595,0.406-3.761,0.779c-7.373-0.104-12.075-3.682-15.157-11.263
			C106.564,96.885,108.057,95.138,110.845,92.726z"/>
		<path fill="#47CBE6" d="M186.387,186.935c-0.178-19.128-29.853-19.144-29.681,0c0.437,47.81,5.949,95.074,11.873,142.453
			c2.338,18.732,32.044,18.961,29.681,0C192.332,282.005,186.824,234.744,186.387,186.935z"/>
		<path fill="#47CBE6" d="M248.712,183.967c-1.025-19.032-30.709-19.136-29.681,0c2.829,52.484,4.723,105.01,10.39,157.292
			c2.039,18.82,31.738,19.018,29.682,0C253.435,288.977,251.536,236.451,248.712,183.967z"/>
		<path fill="#47CBE6" d="M284.856,186.427c7.994,58.711,4.17,118.058,3.92,177.088c-0.08,19.141,29.596,19.135,29.682,0
			c0.26-61.895,3.393-123.444-4.98-184.982C310.901,159.648,282.308,167.723,284.856,186.427z"/>
	</g>
</g>
</svg>
