<?xml version="1.0" encoding="utf-8"?>
<!-- Generator: Adobe Illustrator 15.0.0, SVG Export Plug-In . SVG Version: 6.00 Build 0)  -->
<!DOCTYPE svg PUBLIC "-//W3C//DTD SVG 1.1//EN" "http://www.w3.org/Graphics/SVG/1.1/DTD/svg11.dtd">
<svg version="1.1" id="ef4d1e10-640d-406d-ab29-0014e28ba91d"
	 xmlns="http://www.w3.org/2000/svg" xmlns:xlink="http://www.w3.org/1999/xlink" x="0px" y="0px" width="910.74px"
	 height="527.39px" viewBox="0 0 910.74 527.39" enable-background="new 0 0 910.74 527.39" xml:space="preserve">
<title>notes1</title>
<g opacity="0.5">
	
		<linearGradient id="SVGID_1_" gradientUnits="userSpaceOnUse" x1="-834.0205" y1="651.5601" x2="-834.0205" y2="942.3892" gradientTransform="matrix(1 0 0 -1 1044 942.3896)">
		<stop  offset="0" style="stop-color:#808080;stop-opacity:0.25"/>
		<stop  offset="0.54" style="stop-color:#808080;stop-opacity:0.12"/>
		<stop  offset="1" style="stop-color:#808080;stop-opacity:0.1"/>
	</linearGradient>
	<rect fill="url(#SVGID_1_)" width="419.96" height="290.83"/>
</g>
<rect x="4.34" y="4.34" fill="#F7F7F7" width="412.36" height="283.23"/>
<g opacity="0.5">
	<circle fill="#EDC71C" cx="71.35" cy="100.38" r="7.6"/>
	<circle fill="#EDC71C" cx="71.35" cy="145.96" r="7.6"/>
	<circle fill="#EDC71C" cx="71.35" cy="191.53" r="7.6"/>
</g>
<rect x="127.24" y="96.04" fill="#E0E0E0" width="230.06" height="8.68"/>
<rect x="127.24" y="141.61" fill="#E0E0E0" width="230.06" height="8.68"/>
<rect x="127.24" y="187.19" fill="#E0E0E0" width="230.06" height="8.68"/>
<g opacity="0.5">
	
		<linearGradient id="SVGID_2_" gradientUnits="userSpaceOnUse" x1="-687.52" y1="533.2788" x2="-687.52" y2="824.1089" gradientTransform="matrix(1 0 0 -1 1044 942.3896)">
		<stop  offset="0" style="stop-color:#808080;stop-opacity:0.25"/>
		<stop  offset="0.54" style="stop-color:#808080;stop-opacity:0.12"/>
		<stop  offset="1" style="stop-color:#808080;stop-opacity:0.1"/>
	</linearGradient>
	<rect x="146.5" y="118.28" fill="url(#SVGID_2_)" width="419.96" height="290.831"/>
</g>
<rect x="150.84" y="122.62" fill="#F7F7F7" width="412.36" height="283.229"/>
<g opacity="0.5">
	<circle fill="#EDC71C" cx="217.85" cy="218.66" r="7.6"/>
	<circle fill="#EDC71C" cx="217.85" cy="264.24" r="7.6"/>
	<circle fill="#EDC71C" cx="217.85" cy="309.82" r="7.6"/>
</g>
<rect x="273.73" y="214.32" fill="#E0E0E0" width="230.06" height="8.68"/>
<rect x="273.73" y="259.9" fill="#E0E0E0" width="230.06" height="8.68"/>
<rect x="273.73" y="305.47" fill="#E0E0E0" width="230.06" height="8.68"/>
<g opacity="0.5">
	
		<linearGradient id="SVGID_3_" gradientUnits="userSpaceOnUse" x1="-541.02" y1="414.9897" x2="-541.02" y2="705.8198" gradientTransform="matrix(1 0 0 -1 1044 942.3896)">
		<stop  offset="0" style="stop-color:#808080;stop-opacity:0.25"/>
		<stop  offset="0.54" style="stop-color:#808080;stop-opacity:0.12"/>
		<stop  offset="1" style="stop-color:#808080;stop-opacity:0.1"/>
	</linearGradient>
	<rect x="293" y="236.57" fill="url(#SVGID_3_)" width="419.96" height="290.83"/>
</g>
<rect x="297.34" y="240.91" fill="#EEEEEE" width="412.36" height="283.23"/>
<circle fill="#EDC71C" cx="364.35" cy="336.94" r="7.601"/>
<circle fill="#EDC71C" cx="364.35" cy="382.52" r="7.601"/>
<circle fill="#EDC71C" cx="364.35" cy="428.1" r="7.601"/>
<rect x="420.23" y="332.599" fill="#DFDFDF" width="230.06" height="8.682"/>
<rect x="420.23" y="378.179" fill="#DFDFDF" width="230.06" height="8.682"/>
<rect x="420.23" y="423.759" fill="#DFDFDF" width="230.06" height="8.682"/>
<g opacity="0.5">
	
		<linearGradient id="SVGID_4_" gradientUnits="userSpaceOnUse" x1="-131.8599" y1="253.5" x2="-131.8599" y2="660.6016" gradientTransform="matrix(1 0 0 -1 899.3701 756.0889)">
		<stop  offset="0" style="stop-color:#808080;stop-opacity:0.25"/>
		<stop  offset="0.54" style="stop-color:#808080;stop-opacity:0.12"/>
		<stop  offset="1" style="stop-color:#808080;stop-opacity:0.1"/>
	</linearGradient>
	<path fill="url(#SVGID_4_)" d="M902.11,232.7c-3-0.19-6.091-2.26-6.391-5.24c-0.359-3.56,3-6.17,5.13-9.08
		c3.721-5.18,3.271-12.63-0.09-18c-3.359-5.37-9.18-9-15.29-10.8c-5.069-1.51-11-2.35-14-6.77c-4.739-7.18,2.591-16.19,3.22-24.77
		c0.601-8.17-6.159-16.18-14.319-17c-4.72-0.45-10.261,1-13.681-2.3c-0.938-0.968-1.654-2.128-2.1-3.4
		c-2.2-5.71-1.17-12.07-0.89-18.18c0.28-6.11-0.561-13-5.271-16.89c-2.72-2.27-6.32-3.16-9.81-3.73
		c-10.59-1.73-21.44-1.14-32.061,0.42c-14.79,2.17-30.21,6.77-40,18.06s-11.069,30.89,0.75,40c-1-0.8-0.56-2.57,0.87-4.69
		c0,0.2,0,0.39,0,0.59c-0.012,12.603,7.855,23.869,19.69,28.2v2.11c-2.151,0.524-4.205,1.392-6.08,2.57
		c-20.14,4.97-60.42,29.79-60.42,29.79l-59.15,10c0,0-29,4.46-27.899,8.93c1.1,4.47,27.899,1.12,27.899,1.12h59.811
		c5.427-0.007,10.765-1.382,15.52-4l32.7-18c-0.16,2.6-0.24,5.28-0.26,8c-5.17,3.7-10.23,11.78,0.399,28.42l0.08-0.46
		c0,0.15,0,0.31,0,0.46l-11.89,54.82c-3.62,2.68-6.1,5.15-5.24,6.469c0.5,0.762,1.84,0.9,3.67,0.65l-16.46,76l46.12,55.701l7.7,44.1
		l-7.25,6.949l-26.9,5c-1.325,0.244-2.203,1.516-1.96,2.84c0.213,1.162,1.229,2.006,2.41,2h58.94V491.48h0.54l-1-13.34l18.63-12.18
		l-6.11-9.34l-0.87,0.568L805.92,436.4l-2.55-32.76l27.2-98.54l0,0v-0.11l0,0l-6.681-27.49l11.71-5.939
		c7.625-3.873,11.236-12.768,8.471-20.86c-1.79-5.19-4-11.31-6.58-17.53c3.866,3.859,8.339,7.058,13.24,9.47
		c19.38,9.11,42.619,0.43,60-12.07C907.98,231.7,905.1,232.9,902.11,232.7z M818.63,255.83l-4.149-17.06l5.64,14.42
		c-0.75,1.31-1.31,2.29-1.5,2.65L818.63,255.83z M795.47,181.39v-1.28c3.856-0.941,7.487-2.641,10.681-5
		c-0.276,4.494,0.159,9.002,1.289,13.36c-2.629-3.41-6.43-5.77-11.979-7.06L795.47,181.39z M764.15,377.97l23.84-68.93l-14.62,81.83
		L764.15,377.97z"/>
</g>
<path fill="#333333" d="M820.15,452.269l-20.891,13.66l-24.08,23.09c-0.817,0.789-0.961,2.049-0.34,3l0,0
	c0.715,1.098,2.184,1.406,3.28,0.691l0,0l48-31.361L820.15,452.269z"/>
<path fill="#EDC71C" d="M776.98,205.1l-48.291,26.51c-4.624,2.539-9.814,3.87-15.09,3.87h-58.16v-9.78l57.511-9.771
	c0,0,65.12-40.13,69.42-27.11S776.98,205.1,776.98,205.1z"/>
<path fill="#EDC71C" d="M828.85,304.94H748.7l12-55.34c0-30.12-6-65.89,24.13-65.89l0,0c30.12,0,26.87,20.58,26.87,50.69
	L828.85,304.94z"/>
<path fill="#FDA57D" d="M777.61,162.68h17.079l0,0v23.67c0,4.346-3.523,7.87-7.869,7.87h-1.34c-4.347,0-7.87-3.523-7.87-7.87V162.68
	L777.61,162.68z"/>
<polygon fill="#E0E0E0" points="748.7,304.82 731.62,383.66 801.26,467.759 819.65,453.31 764.24,375.781 788.78,304.82 "/>
<polygon opacity="0.04" enable-background="new    " points="748.7,304.82 731.62,383.66 801.26,467.759 819.65,453.31 
	764.24,375.781 788.78,304.82 "/>
<polygon fill="#E0E0E0" points="788.12,304.82 770.47,403.679 784.86,486.15 808.97,486.15 802.4,400.75 828.85,304.82 "/>
<path fill="#EDC71C" d="M770.47,219.21"/>
<path opacity="0.05" enable-background="new    " d="M817.13,257.19l-53.17,38l4.34,7.601l62.16-31.531
	c7.435-3.766,10.952-12.439,8.24-20.319C831.29,229.44,817.13,257.19,817.13,257.19z"/>
<path opacity="0.05" enable-background="new    " d="M802.83,213.42l17.54,44.85l-54.24,31.431l5.431,14.109l62.159-31.53
	c7.435-3.766,10.952-12.439,8.24-20.32c-7.41-21.47-22.72-59.41-35.71-50.49C802.473,204.175,801.056,209.126,802.83,213.42z"/>
<path fill="#EDC71C" d="M801.75,211.25l17.55,44.86l-53.17,35.81l3.24,9.781l63.24-31.531c7.435-3.766,10.952-12.439,8.239-20.319
	c-7.41-21.47-22.72-59.41-35.71-50.49C801.401,202.066,800.001,206.979,801.75,211.25z"/>
<path fill="#333333" d="M808.45,486.16h-25l-32.79,6.15c-1.12,0.211-1.931,1.189-1.93,2.33l0,0c0,1.309,1.061,2.369,2.369,2.369
	h57.311L808.45,486.16z"/>
<path opacity="0.05" enable-background="new    " d="M804.11,213.78c0,0,13,17.36,10.85,30.38"/>
<path opacity="0.05" enable-background="new    " d="M777.61,184.7c5.475,1.999,11.422,2.319,17.079,0.92v-20.77H777.61V184.7z"/>
<circle fill="#FDA57D" cx="787.66" cy="155.08" r="29.2"/>
<path fill="#FDA57D" d="M655.439,225.7c0,0-28.209,4.34-27.129,8.68c1.079,4.34,27.129,1.09,27.129,1.09V225.7z"/>
<path fill="#FDA57D" d="M766.85,292.121c0,0-25.25,13.319-22.8,17.068c2.45,3.75,26-7.839,26-7.839L766.85,292.121z"/>
<path fill="#EDC71C" d="M766.13,219.21c0,0-21.87,4.78-5.51,30.38"/>
<path opacity="0.05" enable-background="new    " d="M792.17,221.38c0,0-21.87,4.78-5.51,30.38"/>
<path fill="#EDC71C" d="M793.26,221.38c0,0-21.87,4.78-5.51,30.38"/>
<path fill="#333333" d="M809.37,164.45c-5.771,9.35-5.42,21.49-1.601,31.79c3.82,10.3,10.73,19.12,17.73,27.59
	c6.561,7.94,13.59,15.95,22.91,20.33c18.85,8.86,41.439,0.42,58.35-11.73c-2.68,1.14-5.49,2.31-8.39,2.12
	c-2.9-0.19-5.92-2.2-6.22-5.09c-0.351-3.46,3-6,5-8.83c3.619-5,3.18-12.28-0.08-17.55s-8.92-8.72-14.87-10.5
	c-4.931-1.47-10.73-2.29-13.57-6.58c-4.6-7,2.521-15.74,3.13-24.08c0.59-7.94-6-15.73-13.92-16.49c-4.59-0.44-10,1-13.3-2.24
	c-0.898-0.945-1.581-2.075-2-3.31c-2.14-5.55-1.14-11.74-0.87-17.68c0.271-5.94-0.55-12.62-5.12-16.42
	c-2.649-2.2-6.14-3.07-9.54-3.62c-10.3-1.68-20.85-1.11-31.17,0.41c-14.39,2.11-29.369,6.58-38.899,17.56s-10.771,30,0.729,38.94
	c-4.07-3.15,15.771-21.7,25.09-16C793.37,149.51,793.59,165.07,809.37,164.45z"/>
</svg>
